<svg class="svg-icon" style="width: 1em;height: 1em;vertical-align: middle;fill: currentColor;overflow: hidden;" viewBox="0 0 1024 1024" version="1.1" xmlns="http://www.w3.org/2000/svg"><path d="M597.45066667 540.27733333m-195.808 0a195.808 195.808 0 1 0 391.616 0 195.808 195.808 0 1 0-391.616 0Z" fill="#FFD500" /><path d="M607.488 546.50666667h-22.67733333c-11.2-40.98133333-34.26133333-78.08-66.58133334-106.496-39.84-35.01866667-91.02933333-54.304-144.11733333-54.304-53.35466667 0-104.72533333 19.456-144.65066667 54.77333333-33.728 29.83466667-57.25866667 69.10933333-67.68 112.36266667-73.67466667 20.56533333-126.73066667 88.512-126.73066666 166.752 0 95.44533333 77.65333333 173.09866667 173.09866666 173.09866666h399.33866667c95.44533333 0 173.09866667-77.65333333 173.09866667-173.088 0-95.44533333-77.65333333-173.09866667-173.09866667-173.09866666z" fill="#67ABF5" /><path d="M608.04266667 297.06666667c-17.67466667 0-32-14.32533333-32-32v-102.18666667c0-17.67466667 14.32533333-32 32-32s32 14.32533333 32 32v102.19733333c0 17.664-14.32533333 31.98933333-32 31.98933334zM854.752 790.496c-8.192 0-16.37333333-3.12533333-22.624-9.376l-29.94133333-29.94133333c-12.50133333-12.50133333-12.50133333-32.75733333 0-45.25866667 12.50133333-12.49066667 32.75733333-12.50133333 45.25866666 0l29.94133334 29.94133333c12.50133333 12.50133333 12.50133333 32.75733333 0 45.25866667-6.25066667 6.25066667-14.44266667 9.376-22.63466667 9.376zM422.61333333 359.36c-8.27733333 0-16.544-3.18933333-22.816-9.55733333l-61.29066666-62.29333334c-12.39466667-12.59733333-12.23466667-32.85333333 0.36266666-45.248 12.59733333-12.39466667 32.85333333-12.23466667 45.25866667 0.36266667l61.29066667 62.29333333c12.39466667 12.59733333 12.23466667 32.85333333-0.36266667 45.248-6.22933333 6.13333333-14.336 9.19466667-22.44266667 9.19466667zM782.496 369.33333333c-8.192 0-16.37333333-3.12533333-22.624-9.376-12.50133333-12.50133333-12.50133333-32.75733333 0-45.25866666l72.26666667-72.256c12.49066667-12.50133333 32.75733333-12.50133333 45.25866666 0s12.50133333 32.75733333 0 45.25866666l-72.26666666 72.256a31.94666667 31.94666667 0 0 1-22.63466667 9.376zM956.94933333 543.78666667h-102.19733333c-17.67466667 0-32-14.32533333-32-32s14.32533333-32 32-32h102.19733333c17.67466667 0 32 14.32533333 32 32s-14.32533333 32-32 32z" fill="#FFD500" /></svg>