<!DOCTYPE svg PUBLIC "-//W3C//DTD SVG 1.1//EN" "http://www.w3.org/Graphics/SVG/1.1/DTD/svg11.dtd">
<!-- Uploaded to: SVG Repo, www.svgrepo.com, Transformed by: SVG Repo Mixer Tools -->
<svg fill="#8d8d8d" width="64px" height="64px" viewBox="-7 -2 24 24" xmlns="http://www.w3.org/2000/svg" preserveAspectRatio="xMinYMin" class="jam jam-temperature" stroke="#8d8d8d">
<g id="SVGRepo_bgCarrier" stroke-width="0"/>
<g id="SVGRepo_tracerCarrier" stroke-linecap="round" stroke-linejoin="round"/>
<g id="SVGRepo_iconCarrier">
<path d="M10 15a5 5 0 1 1-8-4V3a3 3 0 1 1 6 0v8c1.214.912 2 2.364 2 4zm-3.201-2.401l-.799-.6V3a1 1 0 1 0-2 0v8.999l-.799.6a3 3 0 1 0 3.598 0zM5 17a2 2 0 1 1 0-4 2 2 0 0 1 0 4z"/>
</g>
</svg>